<svg width="512" height="512" viewBox="0 0 512 512" xmlns="http://www.w3.org/2000/svg">
  <!-- Background circle -->
  <circle cx="256" cy="256" r="240" fill="#4285f4" stroke="#ffffff" stroke-width="8"/>
  
  <!-- QR Code representation -->
  <g transform="translate(156, 156)">
    <!-- QR Corner markers -->
    <rect x="0" y="0" width="60" height="60" fill="#ffffff" rx="8"/>
    <rect x="10" y="10" width="40" height="40" fill="#4285f4" rx="4"/>
    <rect x="20" y="20" width="20" height="20" fill="#ffffff" rx="2"/>
    
    <rect x="140" y="0" width="60" height="60" fill="#ffffff" rx="8"/>
    <rect x="150" y="10" width="40" height="40" fill="#4285f4" rx="4"/>
    <rect x="160" y="20" width="20" height="20" fill="#ffffff" rx="2"/>
    
    <rect x="0" y="140" width="60" height="60" fill="#ffffff" rx="8"/>
    <rect x="10" y="150" width="40" height="40" fill="#4285f4" rx="4"/>
    <rect x="20" y="160" width="20" height="20" fill="#ffffff" rx="2"/>
    
    <!-- QR Data pattern -->
    <rect x="80" y="20" width="12" height="12" fill="#ffffff" rx="2"/>
    <rect x="100" y="20" width="12" height="12" fill="#ffffff" rx="2"/>
    <rect x="80" y="40" width="12" height="12" fill="#ffffff" rx="2"/>
    <rect x="120" y="40" width="12" height="12" fill="#ffffff" rx="2"/>
    
    <rect x="20" y="80" width="12" height="12" fill="#ffffff" rx="2"/>
    <rect x="40" y="80" width="12" height="12" fill="#ffffff" rx="2"/>
    <rect x="20" y="100" width="12" height="12" fill="#ffffff" rx="2"/>
    <rect x="40" y="120" width="12" height="12" fill="#ffffff" rx="2"/>
    
    <rect x="80" y="80" width="12" height="12" fill="#ffffff" rx="2"/>
    <rect x="100" y="100" width="12" height="12" fill="#ffffff" rx="2"/>
    <rect x="120" y="80" width="12" height="12" fill="#ffffff" rx="2"/>
    <rect x="140" y="100" width="12" height="12" fill="#ffffff" rx="2"/>
    
    <rect x="80" y="160" width="12" height="12" fill="#ffffff" rx="2"/>
    <rect x="100" y="160" width="12" height="12" fill="#ffffff" rx="2"/>
    <rect x="120" y="160" width="12" height="12" fill="#ffffff" rx="2"/>
    <rect x="140" y="160" width="12" height="12" fill="#ffffff" rx="2"/>
    <rect x="160" y="160" width="12" height="12" fill="#ffffff" rx="2"/>
    <rect x="180" y="160" width="12" height="12" fill="#ffffff" rx="2"/>
  </g>
  
  <!-- Inventory icon (boxes) at bottom -->
  <g transform="translate(206, 350)">
    <rect x="0" y="0" width="30" height="25" fill="#ffffff" rx="3" opacity="0.9"/>
    <rect x="35" y="0" width="30" height="25" fill="#ffffff" rx="3" opacity="0.7"/>
    <rect x="70" y="0" width="30" height="25" fill="#ffffff" rx="3" opacity="0.9"/>
    
    <rect x="17" y="-15" width="30" height="25" fill="#ffffff" rx="3" opacity="0.8"/>
    <rect x="52" y="-15" width="30" height="25" fill="#ffffff" rx="3" opacity="0.6"/>
  </g>
</svg>